<svg version="1.1" id="Layer_1" xmlns="http://www.w3.org/2000/svg" xmlns:xlink="http://www.w3.org/1999/xlink" x="0px" y="0px"
	 width="100%" viewBox="0 0 500 500" enable-background="new 0 0 500 500" xml:space="preserve">
<path fill="#000000" opacity="1.000000" stroke="none" 
	d="
M278.000000,501.000000 
	C185.333359,501.000000 93.166710,501.000000 1.000049,501.000000 
	C1.000033,334.333405 1.000033,167.666794 1.000016,1.000139 
	C167.666565,1.000093 334.333130,1.000093 500.999756,1.000046 
	C500.999847,167.666519 500.999847,334.333038 500.999939,500.999786 
	C426.833344,501.000000 352.666656,501.000000 278.000000,501.000000 
M259.120758,234.559708 
	C259.439484,234.963135 259.758240,235.366547 260.260345,236.410507 
	C260.357452,236.610275 260.454529,236.810028 260.437836,237.385635 
	C260.555450,237.674377 260.767792,237.791702 261.064240,237.915421 
	C261.064240,237.915421 261.233551,237.970840 261.263550,238.681961 
	C263.889557,243.805618 266.506073,248.934128 269.143402,254.051956 
	C275.790985,266.951752 282.447876,279.846710 289.289001,293.454437 
	C290.334717,295.634491 291.380432,297.814545 292.405579,300.497437 
	C292.777740,300.825775 293.149872,301.154083 293.494659,301.534027 
	C293.494659,301.534027 293.535980,301.575348 293.836823,302.207794 
	C294.973846,304.764557 296.252289,307.269165 297.218658,309.888855 
	C299.276428,315.467010 302.955261,318.060333 309.000244,316.892792 
	C310.125031,316.675598 311.326996,316.856171 312.493317,316.855988 
	C317.367615,316.855316 322.241882,316.855682 328.413086,316.855682 
	C321.770630,304.004181 315.868835,292.585602 309.788086,280.501373 
	C308.841003,279.012238 307.893890,277.523071 306.894592,275.285278 
	C303.844452,268.934723 300.914886,262.522675 297.714050,256.248993 
	C293.581818,248.149689 289.232727,240.161057 284.822632,231.401718 
	C278.899231,220.004150 272.975830,208.606598 266.870911,196.483353 
	C264.670593,191.759247 263.265015,186.947708 255.958206,187.299698 
	C250.171310,187.578506 246.491409,188.840134 244.955444,194.631210 
	C244.539581,196.199097 243.579971,197.622742 242.302170,199.437378 
	C241.530640,200.889252 240.735947,202.329346 239.991379,203.794922 
	C235.671356,212.298264 231.363159,220.807602 226.541245,229.730301 
	C226.156265,230.269012 225.692749,230.768036 225.397583,231.352142 
	C212.579575,256.717560 199.775497,282.090027 186.972916,307.463287 
	C185.542267,310.298645 184.130341,313.143433 182.299484,316.804138 
	C191.541351,316.804138 199.505096,316.916931 207.459366,316.693481 
	C208.790543,316.656128 210.680130,315.473022 211.297424,314.290100 
	C217.635223,302.144318 223.763824,289.889374 230.735474,278.141907 
	C230.888748,283.438599 231.336151,288.748444 231.100677,294.027802 
	C230.917816,298.127869 232.513382,299.187073 236.296280,299.028259 
	C242.100647,298.784637 247.922546,298.957428 253.737015,298.956726 
	C264.665680,298.955383 275.594330,298.956360 288.116150,298.956360 
	C284.647644,291.843384 281.925232,285.765350 278.690063,279.973755 
	C277.880280,278.524109 275.432190,277.193939 273.718262,277.170227 
	C259.276825,276.970490 244.831009,277.087219 230.860382,276.523956 
	C236.912048,264.668243 242.963730,252.812531 249.563477,240.554474 
	C251.741074,236.637329 253.918671,232.720200 256.127930,228.934723 
	C256.127930,228.934723 256.259155,228.901352 256.315582,229.350098 
	C256.470154,229.646194 256.714294,229.801529 257.197174,230.404449 
	C257.260895,230.596466 257.324646,230.788483 257.332062,231.562515 
	C257.911621,232.322495 258.491150,233.082474 259.028320,233.961380 
	C259.028320,233.961380 259.147461,234.003082 259.120758,234.559708 
z"/>
<path fill="#0C9DF0" opacity="1.000000" stroke="none" 
	d="
M242.869919,199.112595 
	C243.579971,197.622742 244.539581,196.199097 244.955444,194.631210 
	C246.491409,188.840134 250.171310,187.578506 255.958206,187.299698 
	C263.265015,186.947708 264.670593,191.759247 266.934814,197.235825 
	C268.295593,201.830032 269.240540,205.839859 270.975708,209.472198 
	C273.303192,214.344467 273.405151,218.496674 269.610260,220.366562 
	C265.323639,222.478729 260.519318,223.540222 255.953857,225.049240 
	C255.967606,225.039841 255.950958,225.039429 255.935669,224.677246 
	C254.902435,222.905273 253.884460,221.495483 252.690109,219.866760 
	C252.319824,219.124008 252.125916,218.600204 251.919006,217.745804 
	C251.306290,216.604034 250.706589,215.792877 249.971466,214.650696 
	C247.514023,209.250626 245.191971,204.181610 242.869919,199.112595 
z"/>
<path fill="#0952CD" opacity="1.000000" stroke="none" 
	d="
M306.946777,276.033936 
	C307.893890,277.523071 308.841003,279.012238 309.890808,281.205017 
	C312.257111,288.335999 314.520660,294.763367 316.784241,301.190735 
	C316.356628,301.373871 315.929047,301.557007 315.501434,301.740143 
	C314.257416,301.151367 313.013428,300.562592 312.934753,300.525360 
	C309.427368,304.222412 306.455994,307.354523 302.822784,311.184204 
	C300.866577,308.974182 299.127808,306.905762 297.270569,304.949890 
	C296.118652,303.736755 294.786987,302.694366 293.535980,301.575348 
	C293.535980,301.575348 293.494659,301.534027 293.500793,301.249268 
	C293.146698,300.641205 292.786438,300.317902 292.426178,299.994598 
	C291.380432,297.814545 290.334717,295.634491 289.154633,292.764099 
	C288.201996,289.356506 286.577545,286.582642 286.763397,283.935913 
	C287.012360,280.389709 287.581451,275.225189 289.906097,273.761017 
	C298.193634,268.541229 298.495117,269.024841 306.046356,275.629913 
	C306.283112,275.837036 306.643829,275.902466 306.946777,276.033936 
z"/>
<path fill="#1380D4" opacity="1.000000" stroke="none" 
	d="
M249.015411,240.956818 
	C242.963730,252.812531 236.912048,264.668243 230.509506,276.873596 
	C230.019989,277.337891 229.950699,277.485107 229.950775,277.664886 
	C223.763824,289.889374 217.635223,302.144318 211.297424,314.290100 
	C210.680130,315.473022 208.790543,316.656128 207.459366,316.693481 
	C199.505096,316.916931 191.541351,316.804138 182.299484,316.804138 
	C184.130341,313.143433 185.542267,310.298645 186.972916,307.463287 
	C199.775497,282.090027 212.579575,256.717560 225.397583,231.352142 
	C225.692749,230.768036 226.156265,230.269012 226.821320,229.742325 
	C227.315247,230.138840 227.529129,230.523331 227.700623,231.238861 
	C224.324997,238.507629 220.909103,245.407272 217.688232,252.396790 
	C215.615891,256.893951 213.830215,261.523193 211.782700,266.356262 
	C211.407593,267.363953 211.165863,268.108582 210.565552,268.921173 
	C208.808121,271.325256 207.409271,273.661407 205.731934,276.193359 
	C199.998276,287.694153 194.486832,298.972900 189.176727,310.345612 
	C188.657669,311.457336 189.378494,313.147980 189.523804,314.569916 
	C190.918152,313.932343 192.457382,313.491760 193.666565,312.602386 
	C194.905457,311.691193 195.650894,309.593262 196.906830,309.307007 
	C203.685867,307.761963 208.529663,303.943298 211.742111,297.516205 
	C215.230469,299.499969 216.984344,297.802338 218.171921,294.707062 
	C219.300491,291.765533 220.340118,288.742584 221.876541,286.013062 
	C228.477280,274.286774 235.246658,262.655396 241.974030,250.742859 
	C241.993469,250.496307 242.017365,250.002228 242.247833,249.751404 
	C243.001038,248.015228 243.523758,246.529877 244.059204,244.797958 
	C244.071930,244.551392 244.077530,244.057648 244.369781,243.928436 
	C245.794952,242.827942 246.927841,241.856659 248.299408,240.903290 
	C248.538086,240.921188 249.015411,240.956818 249.015411,240.956818 
z"/>
<path fill="#1166C6" opacity="1.000000" stroke="none" 
	d="
M306.920685,275.659607 
	C306.643829,275.902466 306.283112,275.837036 306.046356,275.629913 
	C298.495117,269.024841 298.193634,268.541229 289.906097,273.761017 
	C287.581451,275.225189 287.012360,280.389709 286.763397,283.935913 
	C286.577545,286.582642 288.201996,289.356506 289.060669,292.408691 
	C282.447876,279.846710 275.790985,266.951752 269.143402,254.051956 
	C266.506073,248.934128 263.889557,243.805618 261.549194,238.416489 
	C263.193298,239.790359 264.551758,241.429703 266.097534,243.356506 
	C268.176727,246.800629 270.068634,249.957291 271.990295,253.471359 
	C273.623108,256.492828 275.572693,259.013733 276.745880,261.855255 
	C278.408844,265.883057 279.995911,264.316254 282.180115,262.446991 
	C284.497131,260.464050 286.935364,258.511200 289.609650,257.088257 
	C292.330383,255.640579 293.285889,254.061707 291.945465,251.176437 
	C290.549530,248.171661 289.318481,245.090286 287.866913,241.724838 
	C286.720367,239.269226 285.722229,237.131195 284.748383,234.633652 
	C284.840759,233.557678 284.908875,232.841217 284.976990,232.124756 
	C289.232727,240.161057 293.581818,248.149689 297.714050,256.248993 
	C300.914886,262.522675 303.844452,268.934723 306.920685,275.659607 
z"/>
<path fill="#1166C6" opacity="1.000000" stroke="none" 
	d="
M230.343124,277.903381 
	C229.950699,277.485107 230.019989,277.337891 230.272568,277.166016 
	C244.831009,277.087219 259.276825,276.970490 273.718262,277.170227 
	C275.432190,277.193939 277.880280,278.524109 278.690063,279.973755 
	C281.925232,285.765350 284.647644,291.843384 288.116150,298.956360 
	C275.594330,298.956360 264.665680,298.955383 253.737015,298.956726 
	C247.922546,298.957428 242.100647,298.784637 236.296280,299.028259 
	C232.513382,299.187073 230.917816,298.127869 231.100677,294.027802 
	C231.336151,288.748444 230.888748,283.438599 230.343124,277.903381 
M254.235001,279.909180 
	C248.504547,279.280579 242.783722,278.464691 237.036133,278.168823 
	C235.766281,278.103455 233.301132,279.842651 233.269562,280.812195 
	C233.126022,285.219666 233.655533,289.648987 234.173447,294.797485 
	C235.871078,295.533325 237.631912,297.012085 239.255219,296.874023 
	C245.662186,296.329163 252.444748,299.147522 258.362823,293.420044 
	C261.171631,290.701721 265.983337,289.813019 270.052917,288.699188 
	C274.953644,287.357849 274.895905,284.302795 273.931458,279.979950 
	C267.514832,279.979950 261.274261,279.979950 254.235001,279.909180 
z"/>
<path fill="#0C8CE6" opacity="1.000000" stroke="none" 
	d="
M284.899811,231.763245 
	C284.908875,232.841217 284.840759,233.557678 284.343018,234.634048 
	C277.841553,235.181580 271.904175,235.586243 268.500000,241.882202 
	C268.139191,242.549515 266.797058,242.686188 265.910187,243.069046 
	C264.551758,241.429703 263.193298,239.790359 261.534180,238.060928 
	C261.233551,237.970840 261.064240,237.915421 261.046753,237.666534 
	C260.939301,237.200562 260.780090,237.064606 260.551575,237.009766 
	C260.454529,236.810028 260.357452,236.610275 260.153351,235.828491 
	C259.746704,234.832031 259.447083,234.417557 259.147461,234.003082 
	C259.147461,234.003082 259.028320,233.961380 259.068420,233.596512 
	C258.535187,232.481262 257.961792,231.730881 257.388428,230.980499 
	C257.324646,230.788483 257.260895,230.596466 257.057068,229.908356 
	C256.769501,229.149506 256.550232,228.979202 256.259155,228.901352 
	C256.259155,228.901352 256.127930,228.934723 256.119415,228.493179 
	C256.053955,227.053970 255.997025,226.056305 255.940094,225.058640 
	C260.519318,223.540222 265.323639,222.478729 269.610260,220.366562 
	C273.405151,218.496674 273.303192,214.344467 270.975708,209.472198 
	C269.240540,205.839859 268.295593,201.830032 267.025574,197.598663 
	C272.975830,208.606598 278.899231,220.004150 284.899811,231.763245 
z"/>
<path fill="#0A42BA" opacity="1.000000" stroke="none" 
	d="
M293.686401,301.891571 
	C294.786987,302.694366 296.118652,303.736755 297.270569,304.949890 
	C299.127808,306.905762 300.866577,308.974182 302.822784,311.184204 
	C306.455994,307.354523 309.427368,304.222412 312.934753,300.525360 
	C313.013428,300.562592 314.257416,301.151367 315.501434,301.740143 
	C315.929047,301.557007 316.356628,301.373871 316.784241,301.190735 
	C314.520660,294.763367 312.257111,288.335999 309.980286,281.537842 
	C315.868835,292.585602 321.770630,304.004181 328.413086,316.855682 
	C322.241882,316.855682 317.367615,316.855316 312.493317,316.855988 
	C311.326996,316.856171 310.125031,316.675598 309.000244,316.892792 
	C302.955261,318.060333 299.276428,315.467010 297.218658,309.888855 
	C296.252289,307.269165 294.973846,304.764557 293.686401,301.891571 
z"/>
<path fill="#1166C6" opacity="1.000000" stroke="none" 
	d="
M255.953857,225.049240 
	C255.997025,226.056305 256.053955,227.053970 256.103577,228.427338 
	C253.918671,232.720200 251.741074,236.637329 249.289444,240.755646 
	C249.015411,240.956818 248.538086,240.921188 248.333527,240.580444 
	C248.458832,239.206223 248.788712,238.172714 249.336090,236.844589 
	C249.974625,234.806900 251.087296,232.875870 250.675079,231.359314 
	C249.772324,228.038132 248.151718,224.902130 246.722488,221.736435 
	C244.810226,217.500885 242.801544,213.308853 240.286270,207.925171 
	C238.363678,211.033829 237.155365,212.762665 236.176407,214.612854 
	C233.316208,220.018555 230.547531,225.472672 227.742996,230.907822 
	C227.529129,230.523331 227.315247,230.138840 227.076172,229.534637 
	C231.363159,220.807602 235.671356,212.298264 239.991379,203.794922 
	C240.735947,202.329346 241.530640,200.889252 242.586044,199.274994 
	C245.191971,204.181610 247.514023,209.250626 250.010727,214.958557 
	C250.767609,216.423767 251.349808,217.250092 251.932007,218.076416 
	C252.125916,218.600204 252.319824,219.124008 252.778748,220.190262 
	C254.012833,222.168289 254.981888,223.603851 255.950958,225.039429 
	C255.950958,225.039429 255.967606,225.039841 255.953857,225.049240 
z"/>
<path fill="#1166C6" opacity="1.000000" stroke="none" 
	d="
M257.360229,231.271515 
	C257.961792,231.730881 258.535187,232.481262 259.089600,233.537048 
	C258.491150,233.082474 257.911621,232.322495 257.360229,231.271515 
z"/>
<path fill="#1166C6" opacity="1.000000" stroke="none" 
	d="
M259.134094,234.281403 
	C259.447083,234.417557 259.746704,234.832031 260.061676,235.508224 
	C259.758240,235.366547 259.439484,234.963135 259.134094,234.281403 
z"/>
<path fill="#0A42BA" opacity="1.000000" stroke="none" 
	d="
M292.415894,300.246033 
	C292.786438,300.317902 293.146698,300.641205 293.514496,301.223450 
	C293.149872,301.154083 292.777740,300.825775 292.415894,300.246033 
z"/>
<path fill="#1166C6" opacity="1.000000" stroke="none" 
	d="
M260.494690,237.197693 
	C260.780090,237.064606 260.939301,237.200562 261.052063,237.577606 
	C260.767792,237.791702 260.555450,237.674377 260.494690,237.197693 
z"/>
<path fill="#1166C6" opacity="1.000000" stroke="none" 
	d="
M256.287354,229.125732 
	C256.550232,228.979202 256.769501,229.149506 256.982483,229.614166 
	C256.714294,229.801529 256.470154,229.646194 256.287354,229.125732 
z"/>
<path fill="#0C8CE6" opacity="1.000000" stroke="none" 
	d="
M255.935669,224.677246 
	C254.981888,223.603851 254.012833,222.168289 252.955139,220.409210 
	C253.884460,221.495483 254.902435,222.905273 255.935669,224.677246 
z"/>
<path fill="#0C8CE6" opacity="1.000000" stroke="none" 
	d="
M251.919006,217.745804 
	C251.349808,217.250092 250.767609,216.423767 250.146133,215.289581 
	C250.706589,215.792877 251.306290,216.604034 251.919006,217.745804 
z"/>
<path fill="#0C8CE6" opacity="1.000000" stroke="none" 
	d="
M241.954620,250.989441 
	C235.246658,262.655396 228.477280,274.286774 221.876541,286.013062 
	C220.340118,288.742584 219.300491,291.765533 218.171921,294.707062 
	C216.984344,297.802338 215.230469,299.499969 211.742111,297.516205 
	C208.529663,303.943298 203.685867,307.761963 196.906830,309.307007 
	C195.650894,309.593262 194.905457,311.691193 193.666565,312.602386 
	C192.457382,313.491760 190.918152,313.932343 189.523804,314.569916 
	C189.378494,313.147980 188.657669,311.457336 189.176727,310.345612 
	C194.486832,298.972900 199.998276,287.694153 206.116119,276.182495 
	C211.892715,274.826233 212.555099,273.688141 210.924133,268.853241 
	C211.165863,268.108582 211.407593,267.363953 212.194580,266.330688 
	C219.644989,265.975433 223.515808,261.288055 227.370682,256.514252 
	C228.346176,255.306213 229.422806,253.732880 230.751251,253.342484 
	C234.401016,252.269913 238.209152,251.736328 241.954620,250.989441 
z"/>
<path fill="#0C9DF0" opacity="1.000000" stroke="none" 
	d="
M241.974045,250.742874 
	C238.209152,251.736328 234.401016,252.269913 230.751251,253.342484 
	C229.422806,253.732880 228.346176,255.306213 227.370682,256.514252 
	C223.515808,261.288055 219.644989,265.975433 212.327942,266.067627 
	C213.830215,261.523193 215.615891,256.893951 217.688232,252.396790 
	C220.909103,245.407272 224.324997,238.507629 227.700623,231.238861 
	C230.547531,225.472672 233.316208,220.018555 236.176407,214.612854 
	C237.155365,212.762665 238.363678,211.033829 240.286270,207.925171 
	C242.801544,213.308853 244.810226,217.500885 246.722488,221.736435 
	C248.151718,224.902130 249.772324,228.038132 250.675079,231.359314 
	C251.087296,232.875870 249.974625,234.806900 248.923004,236.808655 
	C242.791840,237.595108 242.561050,237.977875 244.077530,244.057648 
	C244.077530,244.057648 244.071930,244.551392 243.739365,244.860535 
	C242.943649,246.780518 242.480515,248.391373 242.017365,250.002228 
	C242.017365,250.002228 241.993469,250.496307 241.974045,250.742874 
z"/>
<path fill="#0C9DF0" opacity="1.000000" stroke="none" 
	d="
M210.565552,268.921173 
	C212.555099,273.688141 211.892715,274.826233 206.394577,275.986694 
	C207.409271,273.661407 208.808121,271.325256 210.565552,268.921173 
z"/>
<path fill="#0C8CE6" opacity="1.000000" stroke="none" 
	d="
M244.369781,243.928436 
	C242.561050,237.977875 242.791840,237.595108 248.705536,237.103271 
	C248.788712,238.172714 248.458832,239.206223 248.094849,240.562561 
	C246.927841,241.856659 245.794952,242.827942 244.369781,243.928436 
z"/>
<path fill="#0C8CE6" opacity="1.000000" stroke="none" 
	d="
M242.247833,249.751404 
	C242.480515,248.391373 242.943649,246.780518 243.726639,245.107086 
	C243.523758,246.529877 243.001038,248.015228 242.247833,249.751404 
z"/>
<path fill="#0773DE" opacity="1.000000" stroke="none" 
	d="
M288.015350,242.042389 
	C289.318481,245.090286 290.549530,248.171661 291.945465,251.176437 
	C293.285889,254.061707 292.330383,255.640579 289.609650,257.088257 
	C286.935364,258.511200 284.497131,260.464050 282.180115,262.446991 
	C279.995911,264.316254 278.408844,265.883057 276.745880,261.855255 
	C275.572693,259.013733 273.623108,256.492828 272.191040,253.176361 
	C277.579742,249.030090 282.797546,245.536240 288.015350,242.042389 
z"/>
<path fill="#0A82E4" opacity="1.000000" stroke="none" 
	d="
M287.866913,241.724823 
	C282.797546,245.536240 277.579742,249.030090 272.161255,252.818939 
	C270.068634,249.957291 268.176727,246.800629 266.097534,243.356506 
	C266.797058,242.686188 268.139191,242.549515 268.500000,241.882202 
	C271.904175,235.586243 277.841553,235.181580 284.318726,234.993561 
	C285.722229,237.131195 286.720367,239.269226 287.866913,241.724823 
z"/>
<path fill="#0773DE" opacity="1.000000" stroke="none" 
	d="
M255.033676,279.979950 
	C261.274261,279.979950 267.514832,279.979950 273.931458,279.979950 
	C274.895905,284.302795 274.953644,287.357849 270.052917,288.699188 
	C265.983337,289.813019 261.171631,290.701721 258.362823,293.420044 
	C252.444748,299.147522 245.662186,296.329163 239.255219,296.874023 
	C237.631912,297.012085 235.871078,295.533325 234.357956,294.231079 
	C236.602661,292.709015 238.698715,291.822968 240.716141,290.784210 
	C246.105087,288.009460 252.817032,286.963898 255.033676,279.979950 
z"/>
<path fill="#0A82E4" opacity="1.000000" stroke="none" 
	d="
M254.634338,279.944580 
	C252.817032,286.963898 246.105087,288.009460 240.716141,290.784210 
	C238.698715,291.822968 236.602661,292.709015 234.242706,293.867554 
	C233.655533,289.648987 233.126022,285.219666 233.269562,280.812195 
	C233.301132,279.842651 235.766281,278.103455 237.036133,278.168823 
	C242.783722,278.464691 248.504547,279.280579 254.634338,279.944580 
z"/>
</svg>